<?xml version="1.0" encoding="utf-8"?>
<svg width="140" height="41" viewBox="0 0 140 41" fill="none" xmlns="http://www.w3.org/2000/svg">
  <path d="M53.1675 18.1776C54.8322 18.1776 56.2368 17.7652 57.3457 16.9511L57.9015 17.9331L59.8063 17.9331L59.8063 9.10532L54.1955 9.10532L54.8759 11.4527L56.6281 11.4527L56.6281 14.6275C55.7195 15.2778 54.7804 15.5804 53.6782 15.5804C50.8065 15.5804 49.4111 13.3916 49.4111 8.88458C49.4111 4.81237 50.8211 2.5694 53.3824 2.5694C55.0683 2.5694 55.9915 3.39151 56.473 5.31594L56.5234 5.51553L59.7903 4.95248L59.7492 4.73043C59.1934 1.72484 56.8921 0 53.4354 0C48.7386 0 46.0446 3.30827 46.0446 9.07493C46.0446 14.9447 48.5741 18.1776 53.1675 18.1776ZM134.948 7.57198C133.148 6.92831 131.593 6.37318 131.593 4.73952C131.593 2.82435 133.609 2.53754 134.812 2.53754C135.895 2.53754 137.046 2.74638 138.164 3.14156L138.96 0.71489L138.804 0.660698C137.692 0.285332 135.984 0.0236359 134.651 0.0236359C130.87 0.0236359 128.523 1.96657 128.523 5.09376C128.523 8.63464 131.171 9.57836 133.509 10.411C135.359 11.0706 136.957 11.6402 136.957 13.3479C136.957 14.8348 135.745 15.686 133.629 15.686C132.302 15.686 130.736 15.2908 129.446 14.6392L128.622 17.1412L128.763 17.202C130.243 17.8457 132.002 18.2012 133.71 18.2012C135.843 18.2012 137.538 17.6527 138.618 16.6139C139.536 15.7124 140 14.5123 140 13.0479C140 9.37745 137.315 8.41786 134.948 7.57198ZM127.722 0.244896L127.006 2.70594L119.644 2.70596L119.644 7.76418L126.273 7.76418L125.582 10.1684L119.644 10.1684L119.644 15.4725L127.392 15.4725L126.599 17.9322L116.413 17.9322L116.413 0.244896L127.722 0.244896ZM87.1991 15.4726L80.5126 15.4726L80.5126 10.1685L86.4497 10.1685L87.1407 7.76297L80.5126 7.76297L80.5126 2.70606L87.8743 2.70606L88.5905 0.245018L77.2801 0.245018L77.2801 17.9323L86.4045 17.9323L87.1991 15.4726ZM45.1491 15.3341C44.9422 15.4028 44.722 15.4477 44.5045 15.4477C43.9646 15.4477 43.499 15.2323 43.1449 14.6203L43.3956 15.0776L43.121 14.582L43.0613 14.467L41.6964 11.9769L41.1221 10.9499C43.4274 10.1806 44.6411 8.34213 44.6411 5.61674C44.6411 3.80071 43.9792 2.364 42.7257 1.45862C41.5943 0.620644 40.0384 0.245285 37.6813 0.245285L31.2601 0.245285L32.1422 3.2945L32.1422 17.9312L35.3747 17.9312L35.3747 11.4403L37.8299 11.4389L38.4745 12.5849L38.9308 13.3924L40.2586 15.7002C41.2229 17.3483 42.0545 18.1586 43.4844 18.1586C44.1105 18.1586 44.6357 17.9986 45.1491 17.7858L45.1491 15.3341ZM74.442 15.4477C74.6608 15.4477 74.8797 15.4028 75.0866 15.3341L75.0866 17.7858C74.5733 17.9986 74.048 18.1586 73.4219 18.1586C71.9921 18.1586 71.1604 17.3483 70.196 15.7002L68.8683 13.3924L68.412 12.5849L67.7674 11.4389L65.3122 11.4403L65.3122 17.9312L62.0797 17.9312L62.0797 3.2945L61.1976 0.245285L67.6188 0.245285C69.9746 0.245285 71.5318 0.620644 72.6633 1.45862C73.9167 2.364 74.5786 3.80071 74.5786 5.61674C74.5786 8.34213 73.3649 10.1806 71.0596 10.9499L71.6339 11.9769L72.9988 14.467L73.0585 14.582L73.3331 15.0776L73.0824 14.6203C73.4366 15.2323 73.9021 15.4477 74.442 15.4477ZM19.8551 14.146L18.6733 17.9327L15.47 17.9327L20.2053 3.26028L19.3325 0.245422L24.4419 0.245422L30.7252 17.9327L27.4091 17.9327L26.1198 14.146L19.8551 14.146ZM4.11325 17.9328L0.880737 17.9328L0.880737 3.2961L0 0.245567L4.11325 0.245567L4.11325 7.77011L10.7122 7.77011L10.7122 0.245567L13.9447 0.245567L13.9447 17.9328L10.7122 17.9328L10.7122 10.4757L4.11325 10.4757L4.11325 17.9328ZM91.03 17.9328L87.828 17.9328L92.5634 3.26041L91.6906 0.245567L96.8 0.245567L103.083 17.9328L99.7672 17.9328L98.4779 14.1461L92.2132 14.1461L91.03 17.9328ZM111.763 0.245567L108.476 12.6605C108.412 12.868 108.356 13.0702 108.307 13.2632C108.259 13.0596 108.204 12.8561 108.143 12.6618L104.002 0.245567L100.613 0.245567L106.563 17.9328L109.811 17.9328L114.992 0.245567L111.763 0.245567ZM37.8949 9.09818L35.3747 9.09818L35.3747 2.70634L37.4386 2.70634C39.0396 2.70634 40.0106 2.94822 40.5915 3.4888C41.0916 3.9699 41.3569 4.77218 41.3569 5.80709C41.3569 8.05137 40.2573 9.09818 37.8949 9.09818ZM65.3123 9.09818L67.8324 9.09818C70.1948 9.09818 71.2944 8.05137 71.2944 5.80709C71.2944 4.77218 71.0291 3.9699 70.5291 3.4888C69.9481 2.94822 68.9772 2.70634 67.3762 2.70634L65.3123 2.70634L65.3123 9.09818ZM22.8714 4.50401C22.833 4.66922 22.7918 4.82254 22.7494 4.95074L20.716 11.4364L25.2099 11.4351L23.0067 4.95338C22.9603 4.81989 22.9139 4.66658 22.8714 4.50401ZM95.2295 4.50415C95.191 4.66936 95.1499 4.82268 95.1075 4.95088L93.074 11.4366L97.568 11.4353L95.3648 4.95353C95.3184 4.82004 95.272 4.66672 95.2295 4.50415ZM73.4469 31.897C73.4469 26.0458 76.0149 22.8221 80.6772 22.8221C85.3397 22.8221 87.9076 26.0458 87.9076 31.897C87.9076 37.7496 85.3397 40.972 80.6772 40.972C76.0149 40.972 73.4469 37.7496 73.4469 31.897ZM51.0506 30.3708C49.2507 29.7271 47.6961 29.172 47.6961 27.5383C47.6961 25.6231 49.7122 25.3363 50.9153 25.3363C51.9977 25.3363 53.149 25.5452 54.2672 25.9417L55.063 23.5136L54.9052 23.4594C53.795 23.0841 52.0865 22.8224 50.7535 22.8224C46.9731 22.8224 44.6254 24.7653 44.6254 27.8925C44.6254 31.4334 47.2743 32.3771 49.6114 33.2098L49.6116 33.2098C51.4619 33.8693 53.0602 34.439 53.0588 36.1466C53.0588 37.6322 51.8478 38.4848 49.7321 38.4848C48.4044 38.4848 46.8392 38.0896 45.5486 37.438L44.7249 39.94L44.8655 40.0008C46.3458 40.6445 48.1046 41 49.813 41C51.9459 41 53.6411 40.4515 54.7208 39.4126C55.6374 38.5112 56.1029 37.3111 56.1029 35.8466C56.1029 32.1762 53.4183 31.2166 51.0506 30.3708ZM39.5115 34.8926C39.3669 34.6388 39.1892 34.3613 38.969 34.0427L31.2201 23.0526L28.1016 23.0526L28.9797 26.0794L28.9797 40.7425L31.8369 40.7425L31.8369 28.9435C31.9721 29.1946 32.1353 29.455 32.325 29.7247L40.0739 40.7425L42.3687 40.7425L42.3687 23.0526L39.5115 23.0526L39.5115 34.8926ZM17.0442 26.0684L16.1714 23.0536L21.2808 23.0536L27.5627 40.7408L24.248 40.7408L22.9573 36.9541L16.694 36.9541L15.5108 40.7408L12.3088 40.7408L17.0442 26.0684ZM103.282 35.7183C103.319 35.5518 103.359 35.3892 103.401 35.2398L106.668 23.0641L109.734 23.0641L104.69 40.7527L101.674 40.7527L98.8516 30.8795L95.9029 40.7527L92.998 40.7527L87.7892 23.0641L91.015 23.0641L94.554 35.3204C94.5924 35.4553 94.6282 35.5887 94.6587 35.7209C94.6879 35.6059 94.7184 35.4962 94.7529 35.3945L97.5265 26.2548L96.6019 23.0641L99.6938 23.0641L103.151 35.2398C103.2 35.4011 103.243 35.561 103.282 35.7183ZM121.676 26.0926L121.676 34.9045C121.531 34.6508 121.354 34.3719 121.133 34.0546L113.384 23.0645L111.144 23.0645L111.144 40.7545L114.001 40.7545L114.001 28.9555C114.136 29.2053 114.3 29.4669 114.489 29.7366L122.24 40.7545L124.533 40.7545L124.533 23.0645L120.781 23.0645L121.676 26.0926ZM0.880493 23.067L4.11301 23.067L4.11301 38.2946L11.6524 38.2946L10.8592 40.7543L0.880493 40.7543L0.880493 23.067ZM63.2902 23.0677C66.0942 23.0677 67.942 23.5527 69.283 24.6419C70.9716 26.027 71.7568 28.3228 71.7568 31.8704C71.7568 36.1475 70.5112 38.705 67.8398 39.9183C66.6235 40.48 65.0477 40.7536 63.0222 40.7536L57.9142 40.7536L57.9142 26.1169L57.0321 23.0677L63.2902 23.0677ZM76.8134 31.8971C76.812 37.7047 79.0179 38.3761 80.6772 38.3761C82.3366 38.3761 84.5411 37.7047 84.5411 31.8971C84.5411 26.0907 82.3366 25.4193 80.6772 25.4193C79.0179 25.4193 76.8134 26.0907 76.8134 31.8971ZM63.1018 38.2939C64.5118 38.2939 65.7189 38.0071 66.5015 37.4864C67.8253 36.5995 68.3903 34.9037 68.3903 31.8162C68.3903 28.8172 67.8955 27.2443 66.6845 26.3865C65.8913 25.8076 64.6232 25.5274 62.8074 25.5274L61.1467 25.5274L61.1467 38.2939L63.1018 38.2939ZM19.5882 27.7576L17.5548 34.2433L22.0487 34.242L19.8455 27.7602C19.7978 27.6267 19.7527 27.4734 19.7102 27.3109C19.6718 27.4761 19.6306 27.6294 19.5882 27.7576Z" fill="#061D48" fill-rule="evenodd" />
</svg>